<svg width="322" height="259" viewBox="0 0 322 259" fill="none" xmlns="http://www.w3.org/2000/svg">
<g clip-path="url(#clip0_631_10774)">
<g clip-path="url(#clip1_631_10774)">
<path d="M239.561 70.803C239.561 70.803 232.012 11.7326 187.473 54.2016C130.377 108.641 91.9974 0.441891 49.6419 44.6075C26.5022 68.735 87.6485 122.695 46.8114 151.093C5.97436 179.49 39.3456 200.75 39.3456 200.75H271.229C271.229 200.75 295.234 202.483 297.051 172.108C298.865 141.733 270.961 141.365 288.28 103.353C305.598 65.3417 245.003 94.9974 239.561 70.803Z" fill="#F4F5F5"/>
<g opacity="0.5">
<path opacity="0.5" d="M159.472 102.793C166.568 102.793 172.321 97.0403 172.321 89.9439C172.321 82.8475 166.568 77.0947 159.472 77.0947C152.375 77.0947 146.622 82.8475 146.622 89.9439C146.622 97.0403 152.375 102.793 159.472 102.793Z" fill="white" stroke="#4D6173" stroke-width="0.677341" stroke-miterlimit="10"/>
<g opacity="0.5">
<path d="M159.472 85.4556C159.571 86.2029 159.637 86.9525 159.684 87.6998C159.714 88.0746 159.725 88.4472 159.745 88.8219C159.766 89.1967 159.77 89.5693 159.784 89.9441L159.689 89.7206C160.185 90.1789 160.671 90.6508 161.154 91.1204C161.633 91.5968 162.114 92.0732 162.579 92.5631C162.816 92.8047 163.046 93.0508 163.274 93.3014C163.504 93.5498 163.733 93.7981 163.956 94.0533C164.408 94.559 164.848 95.0738 165.266 95.6134C164.719 95.207 164.193 94.778 163.678 94.3378C163.419 94.121 163.164 93.8975 162.911 93.6717C162.656 93.4482 162.405 93.2224 162.157 92.9921C161.655 92.5383 161.17 92.0687 160.682 91.6013C160.201 91.1272 159.718 90.653 159.251 90.1653L159.151 90.0637L159.156 89.9418C159.169 89.567 159.174 89.1945 159.194 88.8197C159.215 88.4449 159.226 88.0724 159.255 87.6976C159.307 86.9502 159.373 86.2029 159.472 85.4556Z" fill="#4D6173"/>
</g>
</g>
<g opacity="0.2">
<rect x="224.306" y="89.1411" width="28.9106" height="53.8059" fill="white" stroke="#A4B6C6" stroke-width="1.60615"/>
<rect x="224.306" y="135.719" width="28.9106" height="7.22766" stroke="#A4B6C6" stroke-width="1.60615"/>
<rect x="224.306" y="128.492" width="28.9106" height="7.22766" stroke="#A4B6C6" stroke-width="1.60615"/>
<rect x="224.306" y="121.264" width="28.9106" height="7.22766" stroke="#A4B6C6" stroke-width="1.60615"/>
<rect x="224.306" y="114.036" width="28.9106" height="7.22766" stroke="#A4B6C6" stroke-width="1.60615"/>
<rect x="224.306" y="106.809" width="28.9106" height="7.22766" stroke="#A4B6C6" stroke-width="1.60615"/>
<rect x="224.306" y="99.5811" width="28.9106" height="7.22766" stroke="#A4B6C6" stroke-width="1.60615"/>
<rect x="224.306" y="93.9595" width="28.9106" height="5.62151" stroke="#A4B6C6" stroke-width="1.60615"/>
<rect x="195.395" y="89.1411" width="28.9106" height="53.8059" stroke="#A4B6C6" stroke-width="1.60615"/>
<rect x="198.608" y="93.9595" width="22.486" height="44.169" fill="white" stroke="#A4B6C6" stroke-width="1.60615"/>
</g>
<g opacity="0.2">
<path d="M83.8472 102.382L83.166 105.082H94.2283L93.5471 102.382M83.8472 102.382L86.9504 90.0822V85.2824H88.6971M83.8472 102.382H93.5471M93.5471 102.382L90.4438 90.0822V85.2824H88.6971M88.6971 85.2824C88.406 82.8825 88.8136 77.2427 92.7727 73.8828" stroke="#A4B6C6" stroke-width="1.60615"/>
<rect x="100.051" y="92.7822" width="14.5557" height="12.5996" rx="3.21229" fill="white" stroke="#A4B6C6" stroke-width="1.60615"/>
<path d="M100.051 96.3818H114.606" stroke="#A4B6C6" stroke-width="1.60615"/>
<path d="M107.328 92.782C105.582 92.582 101.215 91.2821 101.215 87.6822C104.126 87.9822 105.29 88.5822 107.328 92.782ZM107.328 92.782C106.067 90.5821 104.359 85.3423 107.619 81.9824C110.647 85.3423 108.687 90.5821 107.328 92.782ZM107.328 92.782C107.328 93.082 109.657 87.6822 114.315 87.3822C114.315 90.0221 109.657 92.0821 107.328 92.782Z" stroke="#A4B6C6" stroke-width="1.60615"/>
<rect x="77.3437" y="105.382" width="46.5782" height="5.39981" stroke="#A4B6C6" stroke-width="1.60615"/>
</g>
<path d="M39.0515 200.39H260.01" stroke="#A4B6C6" stroke-width="1.60615" stroke-miterlimit="10"/>
<path d="M267.747 200.39H295.055" stroke="#A4B6C6" stroke-width="1.60615" stroke-miterlimit="10"/>
</g>
<path d="M131.54 147.754L123.003 190.593C122.424 193.503 124.352 196.39 127.261 196.97L128.565 197.23L170.1 205.507C173.01 206.087 175.897 204.159 176.477 201.249L186.873 149.08L187.153 147.675C187.733 144.766 185.805 141.878 182.896 141.298L150.791 134.901" fill="#D3D4D4"/>
<path d="M131.54 147.754L123.003 190.593C122.424 193.503 124.352 196.39 127.261 196.97L128.565 197.23L170.1 205.507C173.01 206.087 175.897 204.159 176.477 201.249L186.873 149.08L187.153 147.675C187.733 144.766 185.805 141.878 182.896 141.298L150.791 134.901" stroke="#BFC4C8" stroke-width="1.60615" stroke-miterlimit="10" stroke-linecap="round" stroke-linejoin="round"/>
<path d="M150.792 134.901L147.593 150.953L131.541 147.754L150.792 134.901Z" fill="#BFC4C8" stroke="#BFC4C8" stroke-width="1.60615" stroke-miterlimit="10" stroke-linecap="round" stroke-linejoin="round"/>
<path d="M167.689 145.177L178.248 187.563C178.965 190.442 177.176 193.418 174.298 194.135L173.007 194.456L131.912 204.694C129.033 205.411 126.057 203.622 125.34 200.744L112.481 149.126L112.135 147.736C111.418 144.857 113.207 141.882 116.085 141.164L147.85 133.251" fill="#EAEEF9"/>
<path d="M167.689 145.177L178.248 187.563C178.965 190.442 177.176 193.418 174.298 194.135L173.007 194.456L131.912 204.694C129.033 205.411 126.057 203.622 125.34 200.744L112.481 149.126L112.135 147.736C111.418 144.857 113.207 141.882 116.085 141.164L147.85 133.251" stroke="#BFC4C8" stroke-width="1.60615" stroke-miterlimit="10" stroke-linecap="round" stroke-linejoin="round"/>
<path d="M147.85 133.251L151.806 149.134L167.689 145.177L147.85 133.251Z" fill="#BFC4C8" stroke="#BFC4C8" stroke-width="1.60615" stroke-miterlimit="10" stroke-linecap="round" stroke-linejoin="round"/>
<path d="M178.076 151.282V194.963C178.076 197.93 175.621 200.385 172.654 200.385H171.324H128.973C126.006 200.385 123.551 197.93 123.551 194.963V141.768V140.336C123.551 137.369 126.006 134.914 128.973 134.914H161.708" fill="white"/>
<path d="M178.076 151.282V194.963C178.076 197.93 175.621 200.385 172.654 200.385H171.324H128.973C126.006 200.385 123.551 197.93 123.551 194.963V141.768V140.336C123.551 137.369 126.006 134.914 128.973 134.914H161.708" stroke="#BFC4C8" stroke-width="1.60615" stroke-miterlimit="10" stroke-linecap="round" stroke-linejoin="round"/>
<path d="M161.708 134.914V151.282H178.076L161.708 134.914Z" fill="#BFC4C8" stroke="#BFC4C8" stroke-width="1.60615" stroke-miterlimit="10" stroke-linecap="round" stroke-linejoin="round"/>
<path d="M184.369 193.853L169.83 184.883L171.888 181.55L186.42 190.531L184.369 193.853Z" fill="#D3D4D4" stroke="#BFC4C8" stroke-width="0.923534" stroke-miterlimit="10"/>
<path d="M191.621 198.371L180.471 191.487C179.54 190.912 179.25 189.685 179.824 188.753C180.399 187.822 181.626 187.532 182.558 188.107L193.708 194.992C194.639 195.567 194.929 196.794 194.354 197.725C193.779 198.656 192.552 198.946 191.621 198.371Z" fill="#BFC4C8" stroke="#BFC4C8" stroke-width="0.923534" stroke-miterlimit="10"/>
<path d="M191.116 199.099L176.77 190.241C176.437 190.035 176.334 189.598 176.537 189.256L178.801 185.589C179.007 185.255 179.444 185.152 179.787 185.356L194.132 194.214C194.466 194.42 194.569 194.857 194.365 195.199L192.101 198.866C191.886 199.202 191.449 199.305 191.116 199.099Z" fill="#D3D4D4" stroke="#BFC4C8" stroke-width="0.923534" stroke-miterlimit="10"/>
<path d="M147.563 150.168C135.254 153.079 127.638 165.413 130.549 177.721C133.458 190.02 145.794 197.645 158.093 194.737C170.401 191.826 178.017 179.492 175.106 167.184C172.195 154.875 159.861 147.26 147.563 150.168ZM157.126 190.607C147.244 192.944 137.316 186.703 134.944 176.672C132.572 166.641 138.654 156.623 148.536 154.286C158.418 151.949 168.346 158.191 170.718 168.221C173.091 178.252 166.999 188.272 157.126 190.607Z" fill="#D3D4D4" stroke="#BFC4C8" stroke-width="0.923534" stroke-miterlimit="10"/>
<ellipse cx="152.794" cy="172.311" rx="17.9424" ry="18.0878" transform="rotate(-13.3056 152.794 172.311)" fill="white"/>
<path d="M159.947 172.906C161.308 172.901 162.47 171.73 162.465 170.37C162.46 169.009 161.289 167.847 159.928 167.852C158.568 167.857 157.406 169.028 157.411 170.388C157.416 171.846 158.489 172.911 159.947 172.906Z" fill="#D3D4D4"/>
<path d="M158.469 179.663L157.206 179.668C156.128 177.339 153.307 176.475 151.075 177.649C150.202 178.041 149.428 178.821 149.042 179.697L147.779 179.702C148.837 176.685 152.33 175.117 155.25 176.273C156.612 176.851 157.88 178.013 158.469 179.663Z" fill="#D3D4D4"/>
<path d="M145.492 172.977C146.852 172.972 148.014 171.802 148.009 170.441C148.004 169.08 146.834 167.918 145.473 167.923C144.112 167.928 142.95 169.099 142.955 170.46C143.058 171.917 144.131 172.982 145.492 172.977Z" fill="#D3D4D4"/>
</g>
<path d="M95.7356 232V219.04H97.0676L104.205 229.66V219.04H105.537V232H104.205L97.0676 221.371V232H95.7356ZM112.117 232.27C111.151 232.27 110.326 232.051 109.642 231.613C108.958 231.175 108.433 230.569 108.067 229.795C107.701 229.021 107.518 228.133 107.518 227.131C107.518 226.111 107.704 225.217 108.076 224.449C108.448 223.681 108.976 223.084 109.66 222.658C110.35 222.226 111.169 222.01 112.117 222.01C113.089 222.01 113.917 222.229 114.601 222.667C115.291 223.099 115.816 223.702 116.176 224.476C116.542 225.244 116.725 226.129 116.725 227.131C116.725 228.151 116.542 229.048 116.176 229.822C115.81 230.59 115.282 231.19 114.592 231.622C113.902 232.054 113.077 232.27 112.117 232.27ZM112.117 231.001C113.197 231.001 114.001 230.644 114.529 229.93C115.057 229.21 115.321 228.277 115.321 227.131C115.321 225.955 115.054 225.019 114.52 224.323C113.992 223.627 113.191 223.279 112.117 223.279C111.391 223.279 110.791 223.444 110.317 223.774C109.849 224.098 109.498 224.551 109.264 225.133C109.036 225.709 108.922 226.375 108.922 227.131C108.922 228.301 109.192 229.24 109.732 229.948C110.272 230.65 111.067 231.001 112.117 231.001ZM123.277 232V221.56C123.277 221.308 123.289 221.059 123.313 220.813C123.343 220.567 123.4 220.333 123.484 220.111C123.568 219.883 123.7 219.673 123.88 219.481C124.078 219.265 124.294 219.109 124.528 219.013C124.762 218.911 125.005 218.845 125.257 218.815C125.515 218.785 125.767 218.77 126.013 218.77H127.255V219.886H126.103C125.599 219.886 125.221 220.009 124.969 220.255C124.723 220.501 124.6 220.888 124.6 221.416V232H123.277ZM121.594 223.414V222.28H127.255V223.414H121.594ZM129.145 220.435V218.95H130.468V220.435H129.145ZM129.145 232V222.28H130.468V232H129.145ZM133.339 232V218.77H134.662V232H133.339ZM141.474 232.27C140.526 232.27 139.704 232.06 139.008 231.64C138.318 231.22 137.781 230.629 137.397 229.867C137.013 229.105 136.821 228.211 136.821 227.185C136.821 226.123 137.01 225.205 137.388 224.431C137.766 223.657 138.297 223.06 138.981 222.64C139.671 222.22 140.484 222.01 141.42 222.01C142.38 222.01 143.199 222.232 143.877 222.676C144.555 223.114 145.068 223.744 145.416 224.566C145.764 225.388 145.923 226.369 145.893 227.509H144.543V227.041C144.519 225.781 144.246 224.83 143.724 224.188C143.208 223.546 142.452 223.225 141.456 223.225C140.412 223.225 139.611 223.564 139.053 224.242C138.501 224.92 138.225 225.886 138.225 227.14C138.225 228.364 138.501 229.315 139.053 229.993C139.611 230.665 140.4 231.001 141.42 231.001C142.116 231.001 142.722 230.842 143.238 230.524C143.76 230.2 144.171 229.735 144.471 229.129L145.704 229.606C145.32 230.452 144.753 231.109 144.003 231.577C143.259 232.039 142.416 232.27 141.474 232.27ZM137.757 227.509V226.402H145.182V227.509H137.757ZM151.517 232.261C150.377 232.261 149.438 232.015 148.7 231.523C147.968 231.031 147.518 230.347 147.35 229.471L148.7 229.246C148.844 229.798 149.171 230.239 149.681 230.569C150.197 230.893 150.833 231.055 151.589 231.055C152.327 231.055 152.909 230.902 153.335 230.596C153.761 230.284 153.974 229.861 153.974 229.327C153.974 229.027 153.905 228.784 153.767 228.598C153.635 228.406 153.362 228.229 152.948 228.067C152.534 227.905 151.916 227.713 151.094 227.491C150.212 227.251 149.522 227.011 149.024 226.771C148.526 226.531 148.172 226.255 147.962 225.943C147.752 225.625 147.647 225.238 147.647 224.782C147.647 224.23 147.803 223.747 148.115 223.333C148.427 222.913 148.859 222.589 149.411 222.361C149.963 222.127 150.605 222.01 151.337 222.01C152.069 222.01 152.723 222.13 153.299 222.37C153.881 222.604 154.349 222.934 154.703 223.36C155.057 223.786 155.267 224.281 155.333 224.845L153.983 225.088C153.893 224.518 153.608 224.068 153.128 223.738C152.654 223.402 152.051 223.228 151.319 223.216C150.629 223.198 150.068 223.33 149.636 223.612C149.204 223.888 148.988 224.257 148.988 224.719C148.988 224.977 149.066 225.199 149.222 225.385C149.378 225.565 149.66 225.736 150.068 225.898C150.482 226.06 151.07 226.237 151.832 226.429C152.726 226.657 153.428 226.897 153.938 227.149C154.448 227.401 154.811 227.698 155.027 228.04C155.243 228.382 155.351 228.805 155.351 229.309C155.351 230.227 155.009 230.95 154.325 231.478C153.647 232 152.711 232.261 151.517 232.261ZM163.731 232.27C162.999 232.27 162.384 232.138 161.886 231.874C161.394 231.61 161.025 231.259 160.779 230.821C160.533 230.383 160.41 229.906 160.41 229.39C160.41 228.862 160.515 228.412 160.725 228.04C160.941 227.662 161.232 227.353 161.598 227.113C161.97 226.873 162.399 226.69 162.885 226.564C163.377 226.444 163.92 226.339 164.514 226.249C165.114 226.153 165.699 226.072 166.269 226.006C166.845 225.934 167.349 225.865 167.781 225.799L167.313 226.087C167.331 225.127 167.145 224.416 166.755 223.954C166.365 223.492 165.687 223.261 164.721 223.261C164.055 223.261 163.491 223.411 163.029 223.711C162.573 224.011 162.252 224.485 162.066 225.133L160.779 224.755C161.001 223.885 161.448 223.21 162.12 222.73C162.792 222.25 163.665 222.01 164.739 222.01C165.627 222.01 166.38 222.178 166.998 222.514C167.622 222.844 168.063 223.324 168.321 223.954C168.441 224.236 168.519 224.551 168.555 224.899C168.591 225.247 168.609 225.601 168.609 225.961V232H167.43V229.561L167.772 229.705C167.442 230.539 166.929 231.175 166.233 231.613C165.537 232.051 164.703 232.27 163.731 232.27ZM163.884 231.127C164.502 231.127 165.042 231.016 165.504 230.794C165.966 230.572 166.338 230.269 166.62 229.885C166.902 229.495 167.085 229.057 167.169 228.571C167.241 228.259 167.28 227.917 167.286 227.545C167.292 227.167 167.295 226.885 167.295 226.699L167.799 226.96C167.349 227.02 166.86 227.08 166.332 227.14C165.81 227.2 165.294 227.269 164.784 227.347C164.28 227.425 163.824 227.518 163.416 227.626C163.14 227.704 162.873 227.815 162.615 227.959C162.357 228.097 162.144 228.283 161.976 228.517C161.814 228.751 161.733 229.042 161.733 229.39C161.733 229.672 161.802 229.945 161.94 230.209C162.084 230.473 162.312 230.692 162.624 230.866C162.942 231.04 163.362 231.127 163.884 231.127ZM173.229 232L169.701 222.28H171.042L173.913 230.272L176.766 222.28H178.125L174.597 232H173.229ZM181.978 232.27C181.246 232.27 180.631 232.138 180.133 231.874C179.641 231.61 179.272 231.259 179.026 230.821C178.78 230.383 178.657 229.906 178.657 229.39C178.657 228.862 178.762 228.412 178.972 228.04C179.188 227.662 179.479 227.353 179.845 227.113C180.217 226.873 180.646 226.69 181.132 226.564C181.624 226.444 182.167 226.339 182.761 226.249C183.361 226.153 183.946 226.072 184.516 226.006C185.092 225.934 185.596 225.865 186.028 225.799L185.56 226.087C185.578 225.127 185.392 224.416 185.002 223.954C184.612 223.492 183.934 223.261 182.968 223.261C182.302 223.261 181.738 223.411 181.276 223.711C180.82 224.011 180.499 224.485 180.313 225.133L179.026 224.755C179.248 223.885 179.695 223.21 180.367 222.73C181.039 222.25 181.912 222.01 182.986 222.01C183.874 222.01 184.627 222.178 185.245 222.514C185.869 222.844 186.31 223.324 186.568 223.954C186.688 224.236 186.766 224.551 186.802 224.899C186.838 225.247 186.856 225.601 186.856 225.961V232H185.677V229.561L186.019 229.705C185.689 230.539 185.176 231.175 184.48 231.613C183.784 232.051 182.95 232.27 181.978 232.27ZM182.131 231.127C182.749 231.127 183.289 231.016 183.751 230.794C184.213 230.572 184.585 230.269 184.867 229.885C185.149 229.495 185.332 229.057 185.416 228.571C185.488 228.259 185.527 227.917 185.533 227.545C185.539 227.167 185.542 226.885 185.542 226.699L186.046 226.96C185.596 227.02 185.107 227.08 184.579 227.14C184.057 227.2 183.541 227.269 183.031 227.347C182.527 227.425 182.071 227.518 181.663 227.626C181.387 227.704 181.12 227.815 180.862 227.959C180.604 228.097 180.391 228.283 180.223 228.517C180.061 228.751 179.98 229.042 179.98 229.39C179.98 229.672 180.049 229.945 180.187 230.209C180.331 230.473 180.559 230.692 180.871 230.866C181.189 231.04 181.609 231.127 182.131 231.127ZM189.378 220.435V218.95H190.701V220.435H189.378ZM189.378 232V222.28H190.701V232H189.378ZM193.58 232V218.77H194.903V232H193.58ZM200.382 232.27C199.65 232.27 199.035 232.138 198.537 231.874C198.045 231.61 197.676 231.259 197.43 230.821C197.184 230.383 197.061 229.906 197.061 229.39C197.061 228.862 197.166 228.412 197.376 228.04C197.592 227.662 197.883 227.353 198.249 227.113C198.621 226.873 199.05 226.69 199.536 226.564C200.028 226.444 200.571 226.339 201.165 226.249C201.765 226.153 202.35 226.072 202.92 226.006C203.496 225.934 204 225.865 204.432 225.799L203.964 226.087C203.982 225.127 203.796 224.416 203.406 223.954C203.016 223.492 202.338 223.261 201.372 223.261C200.706 223.261 200.142 223.411 199.68 223.711C199.224 224.011 198.903 224.485 198.717 225.133L197.43 224.755C197.652 223.885 198.099 223.21 198.771 222.73C199.443 222.25 200.316 222.01 201.39 222.01C202.278 222.01 203.031 222.178 203.649 222.514C204.273 222.844 204.714 223.324 204.972 223.954C205.092 224.236 205.17 224.551 205.206 224.899C205.242 225.247 205.26 225.601 205.26 225.961V232H204.081V229.561L204.423 229.705C204.093 230.539 203.58 231.175 202.884 231.613C202.188 232.051 201.354 232.27 200.382 232.27ZM200.535 231.127C201.153 231.127 201.693 231.016 202.155 230.794C202.617 230.572 202.989 230.269 203.271 229.885C203.553 229.495 203.736 229.057 203.82 228.571C203.892 228.259 203.931 227.917 203.937 227.545C203.943 227.167 203.946 226.885 203.946 226.699L204.45 226.96C204 227.02 203.511 227.08 202.983 227.14C202.461 227.2 201.945 227.269 201.435 227.347C200.931 227.425 200.475 227.518 200.067 227.626C199.791 227.704 199.524 227.815 199.266 227.959C199.008 228.097 198.795 228.283 198.627 228.517C198.465 228.751 198.384 229.042 198.384 229.39C198.384 229.672 198.453 229.945 198.591 230.209C198.735 230.473 198.963 230.692 199.275 230.866C199.593 231.04 200.013 231.127 200.535 231.127ZM211.968 232.27C211.074 232.27 210.318 232.045 209.7 231.595C209.082 231.139 208.614 230.524 208.296 229.75C207.978 228.97 207.819 228.097 207.819 227.131C207.819 226.147 207.978 225.271 208.296 224.503C208.62 223.729 209.094 223.12 209.718 222.676C210.342 222.232 211.11 222.01 212.022 222.01C212.91 222.01 213.672 222.235 214.308 222.685C214.944 223.135 215.43 223.747 215.766 224.521C216.108 225.295 216.279 226.165 216.279 227.131C216.279 228.103 216.108 228.976 215.766 229.75C215.424 230.524 214.932 231.139 214.29 231.595C213.648 232.045 212.874 232.27 211.968 232.27ZM207.594 232V219.04H208.926V224.683H208.782V232H207.594ZM211.833 231.037C212.511 231.037 213.075 230.866 213.525 230.524C213.975 230.182 214.311 229.717 214.533 229.129C214.761 228.535 214.875 227.869 214.875 227.131C214.875 226.399 214.764 225.739 214.542 225.151C214.32 224.563 213.981 224.098 213.525 223.756C213.075 223.414 212.502 223.243 211.806 223.243C211.128 223.243 210.564 223.408 210.114 223.738C209.67 224.068 209.337 224.527 209.115 225.115C208.893 225.697 208.782 226.369 208.782 227.131C208.782 227.881 208.893 228.553 209.115 229.147C209.337 229.735 209.673 230.197 210.123 230.533C210.573 230.869 211.143 231.037 211.833 231.037ZM222.368 232.27C221.42 232.27 220.598 232.06 219.902 231.64C219.212 231.22 218.675 230.629 218.291 229.867C217.907 229.105 217.715 228.211 217.715 227.185C217.715 226.123 217.904 225.205 218.282 224.431C218.66 223.657 219.191 223.06 219.875 222.64C220.565 222.22 221.378 222.01 222.314 222.01C223.274 222.01 224.093 222.232 224.771 222.676C225.449 223.114 225.962 223.744 226.31 224.566C226.658 225.388 226.817 226.369 226.787 227.509H225.437V227.041C225.413 225.781 225.14 224.83 224.618 224.188C224.102 223.546 223.346 223.225 222.35 223.225C221.306 223.225 220.505 223.564 219.947 224.242C219.395 224.92 219.119 225.886 219.119 227.14C219.119 228.364 219.395 229.315 219.947 229.993C220.505 230.665 221.294 231.001 222.314 231.001C223.01 231.001 223.616 230.842 224.132 230.524C224.654 230.2 225.065 229.735 225.365 229.129L226.598 229.606C226.214 230.452 225.647 231.109 224.897 231.577C224.153 232.039 223.31 232.27 222.368 232.27ZM218.651 227.509V226.402H226.076V227.509H218.651Z" fill="#2A3238"/>
<path d="M21.9253 253.21C21.2206 253.21 20.586 253.093 20.0213 252.86C19.4613 252.622 18.997 252.286 18.6283 251.852C18.2643 251.418 18.0263 250.902 17.9143 250.305L18.9643 250.13C19.1323 250.783 19.487 251.297 20.0283 251.67C20.5696 252.039 21.216 252.223 21.9673 252.223C22.462 252.223 22.9053 252.146 23.2973 251.992C23.6893 251.833 23.9973 251.609 24.2213 251.32C24.4453 251.031 24.5573 250.688 24.5573 250.291C24.5573 250.03 24.5106 249.808 24.4173 249.626C24.324 249.439 24.2003 249.285 24.0463 249.164C23.8923 249.043 23.7243 248.942 23.5423 248.863C23.3603 248.779 23.183 248.711 23.0103 248.66L20.4553 247.897C20.1473 247.808 19.8626 247.696 19.6013 247.561C19.34 247.421 19.1113 247.255 18.9153 247.064C18.724 246.868 18.5746 246.639 18.4673 246.378C18.36 246.117 18.3063 245.818 18.3063 245.482C18.3063 244.913 18.4556 244.42 18.7543 244.005C19.053 243.59 19.4613 243.27 19.9793 243.046C20.4973 242.822 21.0876 242.712 21.7503 242.717C22.4223 242.717 23.022 242.836 23.5493 243.074C24.0813 243.312 24.52 243.653 24.8653 244.096C25.2106 244.535 25.4393 245.055 25.5513 245.657L24.4733 245.853C24.4033 245.414 24.2423 245.034 23.9903 244.712C23.7383 244.39 23.4163 244.143 23.0243 243.97C22.637 243.793 22.21 243.702 21.7433 243.697C21.2906 243.697 20.887 243.774 20.5323 243.928C20.1823 244.077 19.9046 244.283 19.6993 244.544C19.494 244.805 19.3913 245.104 19.3913 245.44C19.3913 245.781 19.4846 246.054 19.6713 246.259C19.8626 246.464 20.096 246.625 20.3713 246.742C20.6513 246.859 20.922 246.954 21.1833 247.029L23.1573 247.61C23.3626 247.666 23.603 247.748 23.8783 247.855C24.1583 247.958 24.429 248.107 24.6903 248.303C24.9563 248.494 25.1756 248.746 25.3483 249.059C25.521 249.372 25.6073 249.768 25.6073 250.249C25.6073 250.716 25.514 251.133 25.3273 251.502C25.1453 251.871 24.8863 252.181 24.5503 252.433C24.219 252.685 23.8293 252.876 23.3813 253.007C22.938 253.142 22.4526 253.21 21.9253 253.21ZM31.1683 253C30.7436 253.089 30.3236 253.124 29.9083 253.105C29.4976 253.086 29.1289 252.998 28.8023 252.839C28.4803 252.68 28.2353 252.433 28.0673 252.097C27.9319 251.817 27.8573 251.535 27.8433 251.25C27.8339 250.961 27.8293 250.632 27.8293 250.263V243.34H28.8513V250.221C28.8513 250.538 28.8536 250.804 28.8583 251.019C28.8676 251.229 28.9166 251.416 29.0053 251.579C29.1733 251.892 29.4393 252.078 29.8033 252.139C30.1719 252.2 30.6269 252.186 31.1683 252.097V253ZM26.2123 246.322V245.44H31.1683V246.322H26.2123ZM34.8207 253.21C34.2514 253.21 33.7731 253.107 33.3857 252.902C33.0031 252.697 32.7161 252.424 32.5247 252.083C32.3334 251.742 32.2377 251.371 32.2377 250.97C32.2377 250.559 32.3194 250.209 32.4827 249.92C32.6507 249.626 32.8771 249.386 33.1617 249.199C33.4511 249.012 33.7847 248.87 34.1627 248.772C34.5454 248.679 34.9677 248.597 35.4297 248.527C35.8964 248.452 36.3514 248.389 36.7947 248.338C37.2427 248.282 37.6347 248.228 37.9707 248.177L37.6067 248.401C37.6207 247.654 37.4761 247.101 37.1727 246.742C36.8694 246.383 36.3421 246.203 35.5907 246.203C35.0727 246.203 34.6341 246.32 34.2747 246.553C33.9201 246.786 33.6704 247.155 33.5257 247.659L32.5247 247.365C32.6974 246.688 33.0451 246.163 33.5677 245.79C34.0904 245.417 34.7694 245.23 35.6047 245.23C36.2954 245.23 36.8811 245.361 37.3617 245.622C37.8471 245.879 38.1901 246.252 38.3907 246.742C38.4841 246.961 38.5447 247.206 38.5727 247.477C38.6007 247.748 38.6147 248.023 38.6147 248.303V253H37.6977V251.103L37.9637 251.215C37.7071 251.864 37.3081 252.358 36.7667 252.699C36.2254 253.04 35.5767 253.21 34.8207 253.21ZM34.9397 252.321C35.4204 252.321 35.8404 252.235 36.1997 252.062C36.5591 251.889 36.8484 251.654 37.0677 251.355C37.2871 251.052 37.4294 250.711 37.4947 250.333C37.5507 250.09 37.5811 249.824 37.5857 249.535C37.5904 249.241 37.5927 249.022 37.5927 248.877L37.9847 249.08C37.6347 249.127 37.2544 249.173 36.8437 249.22C36.4377 249.267 36.0364 249.32 35.6397 249.381C35.2477 249.442 34.8931 249.514 34.5757 249.598C34.3611 249.659 34.1534 249.745 33.9527 249.857C33.7521 249.964 33.5864 250.109 33.4557 250.291C33.3297 250.473 33.2667 250.699 33.2667 250.97C33.2667 251.189 33.3204 251.402 33.4277 251.607C33.5397 251.812 33.7171 251.983 33.9597 252.118C34.2071 252.253 34.5337 252.321 34.9397 252.321ZM40.437 253V245.44H41.361V247.26L41.179 247.022C41.263 246.798 41.3727 246.593 41.508 246.406C41.6434 246.215 41.7904 246.058 41.949 245.937C42.145 245.764 42.3737 245.634 42.635 245.545C42.8964 245.452 43.16 245.398 43.426 245.384C43.692 245.365 43.9347 245.384 44.154 245.44V246.406C43.8787 246.336 43.5777 246.32 43.251 246.357C42.9244 246.394 42.6234 246.525 42.348 246.749C42.096 246.945 41.907 247.181 41.781 247.456C41.655 247.727 41.571 248.016 41.529 248.324C41.487 248.627 41.466 248.928 41.466 249.227V253H40.437ZM49.598 253C49.1733 253.089 48.7533 253.124 48.338 253.105C47.9273 253.086 47.5586 252.998 47.232 252.839C46.91 252.68 46.665 252.433 46.497 252.097C46.3616 251.817 46.287 251.535 46.273 251.25C46.2636 250.961 46.259 250.632 46.259 250.263V243.34H47.281V250.221C47.281 250.538 47.2833 250.804 47.288 251.019C47.2973 251.229 47.3463 251.416 47.435 251.579C47.603 251.892 47.869 252.078 48.233 252.139C48.6016 252.2 49.0566 252.186 49.598 252.097V253ZM44.642 246.322V245.44H49.598V246.322H44.642ZM57.2852 253.21C56.5898 253.21 56.0018 253.035 55.5212 252.685C55.0405 252.33 54.6765 251.852 54.4292 251.25C54.1818 250.643 54.0582 249.964 54.0582 249.213C54.0582 248.448 54.1818 247.766 54.4292 247.169C54.6812 246.567 55.0498 246.093 55.5352 245.748C56.0205 245.403 56.6178 245.23 57.3272 245.23C58.0178 245.23 58.6105 245.405 59.1052 245.755C59.5998 246.105 59.9778 246.581 60.2392 247.183C60.5052 247.785 60.6382 248.462 60.6382 249.213C60.6382 249.969 60.5052 250.648 60.2392 251.25C59.9732 251.852 59.5905 252.33 59.0912 252.685C58.5918 253.035 57.9898 253.21 57.2852 253.21ZM53.8832 253V242.92H54.9192V247.309H54.8072V253H53.8832ZM57.1802 252.251C57.7075 252.251 58.1462 252.118 58.4962 251.852C58.8462 251.586 59.1075 251.224 59.2802 250.767C59.4575 250.305 59.5462 249.787 59.5462 249.213C59.5462 248.644 59.4598 248.13 59.2872 247.673C59.1145 247.216 58.8508 246.854 58.4962 246.588C58.1462 246.322 57.7005 246.189 57.1592 246.189C56.6318 246.189 56.1932 246.317 55.8432 246.574C55.4978 246.831 55.2388 247.188 55.0662 247.645C54.8935 248.098 54.8072 248.62 54.8072 249.213C54.8072 249.796 54.8935 250.319 55.0662 250.781C55.2388 251.238 55.5002 251.598 55.8502 251.859C56.2002 252.12 56.6435 252.251 57.1802 252.251ZM62.8842 256.36L64.3472 252.391L64.3682 253.567L61.0572 245.44H62.1492L64.8652 252.237H64.4172L66.9232 245.44H67.9732L63.9132 256.36H62.8842ZM74.8127 253.203C73.9261 253.203 73.1957 253.012 72.6217 252.629C72.0524 252.246 71.7024 251.714 71.5717 251.033L72.6217 250.858C72.7337 251.287 72.9881 251.63 73.3847 251.887C73.7861 252.139 74.2807 252.265 74.8687 252.265C75.4427 252.265 75.8954 252.146 76.2267 251.908C76.5581 251.665 76.7237 251.336 76.7237 250.921C76.7237 250.688 76.6701 250.499 76.5627 250.354C76.4601 250.205 76.2477 250.067 75.9257 249.941C75.6037 249.815 75.1231 249.666 74.4837 249.493C73.7977 249.306 73.2611 249.12 72.8737 248.933C72.4864 248.746 72.2111 248.532 72.0477 248.289C71.8844 248.042 71.8027 247.741 71.8027 247.386C71.8027 246.957 71.9241 246.581 72.1667 246.259C72.4094 245.932 72.7454 245.68 73.1747 245.503C73.6041 245.321 74.1034 245.23 74.6727 245.23C75.2421 245.23 75.7507 245.323 76.1987 245.51C76.6514 245.692 77.0154 245.949 77.2907 246.28C77.5661 246.611 77.7294 246.996 77.7807 247.435L76.7307 247.624C76.6607 247.181 76.4391 246.831 76.0657 246.574C75.6971 246.313 75.2281 246.177 74.6587 246.168C74.1221 246.154 73.6857 246.257 73.3497 246.476C73.0137 246.691 72.8457 246.978 72.8457 247.337C72.8457 247.538 72.9064 247.71 73.0277 247.855C73.1491 247.995 73.3684 248.128 73.6857 248.254C74.0077 248.38 74.4651 248.518 75.0577 248.667C75.7531 248.844 76.2991 249.031 76.6957 249.227C77.0924 249.423 77.3747 249.654 77.5427 249.92C77.7107 250.186 77.7947 250.515 77.7947 250.907C77.7947 251.621 77.5287 252.183 76.9967 252.594C76.4694 253 75.7414 253.203 74.8127 253.203ZM80.1517 256.36L81.6148 252.391L81.6358 253.567L78.3247 245.44H79.4168L82.1328 252.237H81.6848L84.1908 245.44H85.2408L81.1808 256.36H80.1517ZM91.9166 253V249.143C91.9166 248.723 91.8769 248.338 91.7976 247.988C91.7182 247.633 91.5899 247.325 91.4126 247.064C91.2399 246.798 91.0136 246.593 90.7336 246.448C90.4582 246.303 90.1222 246.231 89.7256 246.231C89.3616 246.231 89.0396 246.294 88.7596 246.42C88.4842 246.546 88.2509 246.728 88.0596 246.966C87.8729 247.199 87.7306 247.484 87.6326 247.82C87.5346 248.156 87.4856 248.539 87.4856 248.968L86.7576 248.807C86.7576 248.032 86.8929 247.381 87.1636 246.854C87.4342 246.327 87.8076 245.928 88.2836 245.657C88.7596 245.386 89.3056 245.251 89.9216 245.251C90.3742 245.251 90.7686 245.321 91.1046 245.461C91.4452 245.601 91.7322 245.79 91.9656 246.028C92.2036 246.266 92.3949 246.539 92.5396 246.847C92.6842 247.15 92.7892 247.475 92.8546 247.82C92.9199 248.161 92.9526 248.501 92.9526 248.842V253H91.9166ZM86.4496 253V245.44H87.3806V247.302H87.4856V253H86.4496ZM97.864 253.21C97.1034 253.21 96.4594 253.04 95.932 252.699C95.4047 252.358 95.0034 251.889 94.728 251.292C94.4574 250.69 94.3174 249.999 94.308 249.22C94.3174 248.427 94.462 247.731 94.742 247.134C95.022 246.532 95.4257 246.065 95.953 245.734C96.4804 245.398 97.1197 245.23 97.871 245.23C98.6364 245.23 99.3014 245.417 99.866 245.79C100.435 246.163 100.825 246.674 101.035 247.323L100.027 247.645C99.8497 247.192 99.5674 246.842 99.18 246.595C98.7974 246.343 98.3587 246.217 97.864 246.217C97.3087 246.217 96.849 246.345 96.485 246.602C96.121 246.854 95.8504 247.206 95.673 247.659C95.4957 248.112 95.4047 248.632 95.4 249.22C95.4094 250.125 95.6194 250.853 96.03 251.404C96.4407 251.95 97.052 252.223 97.864 252.223C98.3774 252.223 98.8137 252.106 99.173 251.873C99.537 251.635 99.8124 251.29 99.999 250.837L101.035 251.145C100.755 251.817 100.344 252.33 99.803 252.685C99.2617 253.035 98.6154 253.21 97.864 253.21ZM102.415 244.005V242.85H103.444V244.005H102.415ZM102.415 253V245.44H103.444V253H102.415ZM111.003 253V249.143C111.003 248.723 110.963 248.338 110.884 247.988C110.804 247.633 110.676 247.325 110.499 247.064C110.326 246.798 110.1 246.593 109.82 246.448C109.544 246.303 109.208 246.231 108.812 246.231C108.448 246.231 108.126 246.294 107.846 246.42C107.57 246.546 107.337 246.728 107.146 246.966C106.959 247.199 106.817 247.484 106.719 247.82C106.621 248.156 106.572 248.539 106.572 248.968L105.844 248.807C105.844 248.032 105.979 247.381 106.25 246.854C106.52 246.327 106.894 245.928 107.37 245.657C107.846 245.386 108.392 245.251 109.008 245.251C109.46 245.251 109.855 245.321 110.191 245.461C110.531 245.601 110.818 245.79 111.052 246.028C111.29 246.266 111.481 246.539 111.626 246.847C111.77 247.15 111.875 247.475 111.941 247.82C112.006 248.161 112.039 248.501 112.039 248.842V253H111.003ZM105.536 253V245.44H106.467V247.302H106.572V253H105.536ZM116.858 256.57C116.471 256.57 116.088 256.512 115.71 256.395C115.337 256.283 114.991 256.103 114.674 255.856C114.357 255.613 114.091 255.296 113.876 254.904L114.807 254.386C115.017 254.806 115.311 255.107 115.689 255.289C116.072 255.476 116.461 255.569 116.858 255.569C117.404 255.569 117.845 255.466 118.181 255.261C118.522 255.06 118.769 254.762 118.923 254.365C119.077 253.968 119.152 253.474 119.147 252.881V250.865H119.266V245.44H120.183V252.895C120.183 253.11 120.176 253.315 120.162 253.511C120.153 253.712 120.132 253.908 120.099 254.099C120.01 254.664 119.826 255.128 119.546 255.492C119.271 255.856 118.907 256.127 118.454 256.304C118.006 256.481 117.474 256.57 116.858 256.57ZM116.788 253.21C116.083 253.21 115.481 253.035 114.982 252.685C114.483 252.33 114.1 251.852 113.834 251.25C113.568 250.648 113.435 249.969 113.435 249.213C113.435 248.462 113.566 247.785 113.827 247.183C114.093 246.581 114.473 246.105 114.968 245.755C115.463 245.405 116.055 245.23 116.746 245.23C117.455 245.23 118.053 245.403 118.538 245.748C119.023 246.093 119.39 246.567 119.637 247.169C119.889 247.766 120.015 248.448 120.015 249.213C120.015 249.964 119.891 250.643 119.644 251.25C119.397 251.852 119.033 252.33 118.552 252.685C118.071 253.035 117.483 253.21 116.788 253.21ZM116.893 252.251C117.43 252.251 117.873 252.12 118.223 251.859C118.573 251.598 118.834 251.238 119.007 250.781C119.18 250.319 119.266 249.796 119.266 249.213C119.266 248.62 119.18 248.098 119.007 247.645C118.834 247.188 118.573 246.831 118.223 246.574C117.878 246.317 117.441 246.189 116.914 246.189C116.373 246.189 115.925 246.322 115.57 246.588C115.215 246.854 114.952 247.216 114.779 247.673C114.611 248.13 114.527 248.644 114.527 249.213C114.527 249.787 114.613 250.305 114.786 250.767C114.963 251.224 115.227 251.586 115.577 251.852C115.927 252.118 116.366 252.251 116.893 252.251ZM126.021 256.36L127.484 252.391L127.505 253.567L124.194 245.44H125.286L128.002 252.237H127.554L130.06 245.44H131.11L127.05 256.36H126.021ZM135.209 253.21C134.458 253.21 133.816 253.04 133.284 252.699C132.752 252.358 132.344 251.887 132.059 251.285C131.775 250.683 131.632 249.992 131.632 249.213C131.632 248.42 131.777 247.724 132.066 247.127C132.356 246.53 132.766 246.065 133.298 245.734C133.835 245.398 134.472 245.23 135.209 245.23C135.965 245.23 136.609 245.4 137.141 245.741C137.678 246.077 138.086 246.546 138.366 247.148C138.651 247.745 138.793 248.434 138.793 249.213C138.793 250.006 138.651 250.704 138.366 251.306C138.082 251.903 137.671 252.37 137.134 252.706C136.598 253.042 135.956 253.21 135.209 253.21ZM135.209 252.223C136.049 252.223 136.675 251.945 137.085 251.39C137.496 250.83 137.701 250.104 137.701 249.213C137.701 248.298 137.494 247.57 137.078 247.029C136.668 246.488 136.045 246.217 135.209 246.217C134.645 246.217 134.178 246.345 133.809 246.602C133.445 246.854 133.172 247.206 132.99 247.659C132.813 248.107 132.724 248.625 132.724 249.213C132.724 250.123 132.934 250.853 133.354 251.404C133.774 251.95 134.393 252.223 135.209 252.223ZM143.228 253.189C142.776 253.189 142.379 253.119 142.038 252.979C141.702 252.839 141.415 252.65 141.177 252.412C140.944 252.174 140.755 251.903 140.61 251.6C140.466 251.292 140.361 250.968 140.295 250.627C140.23 250.282 140.197 249.939 140.197 249.598V245.44H141.233V249.297C141.233 249.712 141.273 250.097 141.352 250.452C141.432 250.807 141.558 251.117 141.73 251.383C141.908 251.644 142.134 251.847 142.409 251.992C142.689 252.137 143.028 252.209 143.424 252.209C143.788 252.209 144.108 252.146 144.383 252.02C144.663 251.894 144.897 251.714 145.083 251.481C145.275 251.243 145.419 250.956 145.517 250.62C145.615 250.279 145.664 249.897 145.664 249.472L146.392 249.633C146.392 250.408 146.257 251.059 145.986 251.586C145.716 252.113 145.342 252.512 144.866 252.783C144.39 253.054 143.844 253.189 143.228 253.189ZM145.769 253V251.138H145.664V245.44H146.693V253H145.769ZM148.65 253V245.44H149.574V247.26L149.392 247.022C149.476 246.798 149.586 246.593 149.721 246.406C149.856 246.215 150.003 246.058 150.162 245.937C150.358 245.764 150.587 245.634 150.848 245.545C151.109 245.452 151.373 245.398 151.639 245.384C151.905 245.365 152.148 245.384 152.367 245.44V246.406C152.092 246.336 151.791 246.32 151.464 246.357C151.137 246.394 150.836 246.525 150.561 246.749C150.309 246.945 150.12 247.181 149.994 247.456C149.868 247.727 149.784 248.016 149.742 248.324C149.7 248.627 149.679 248.928 149.679 249.227V253H148.65ZM159.634 253.21C158.873 253.21 158.229 253.04 157.702 252.699C157.174 252.358 156.773 251.889 156.498 251.292C156.227 250.69 156.087 249.999 156.078 249.22C156.087 248.427 156.232 247.731 156.512 247.134C156.792 246.532 157.195 246.065 157.723 245.734C158.25 245.398 158.889 245.23 159.641 245.23C160.406 245.23 161.071 245.417 161.636 245.79C162.205 246.163 162.595 246.674 162.805 247.323L161.797 247.645C161.619 247.192 161.337 246.842 160.95 246.595C160.567 246.343 160.128 246.217 159.634 246.217C159.078 246.217 158.619 246.345 158.255 246.602C157.891 246.854 157.62 247.206 157.443 247.659C157.265 248.112 157.174 248.632 157.17 249.22C157.179 250.125 157.389 250.853 157.8 251.404C158.21 251.95 158.822 252.223 159.634 252.223C160.147 252.223 160.583 252.106 160.943 251.873C161.307 251.635 161.582 251.29 161.769 250.837L162.805 251.145C162.525 251.817 162.114 252.33 161.573 252.685C161.031 253.035 160.385 253.21 159.634 253.21ZM164.184 253V242.71H165.213V253H164.184ZM170.469 253.21C169.718 253.21 169.076 253.04 168.544 252.699C168.012 252.358 167.604 251.887 167.319 251.285C167.034 250.683 166.892 249.992 166.892 249.213C166.892 248.42 167.037 247.724 167.326 247.127C167.615 246.53 168.026 246.065 168.558 245.734C169.095 245.398 169.732 245.23 170.469 245.23C171.225 245.23 171.869 245.4 172.401 245.741C172.938 246.077 173.346 246.546 173.626 247.148C173.911 247.745 174.053 248.434 174.053 249.213C174.053 250.006 173.911 250.704 173.626 251.306C173.341 251.903 172.931 252.37 172.394 252.706C171.857 253.042 171.216 253.21 170.469 253.21ZM170.469 252.223C171.309 252.223 171.934 251.945 172.345 251.39C172.756 250.83 172.961 250.104 172.961 249.213C172.961 248.298 172.753 247.57 172.338 247.029C171.927 246.488 171.304 246.217 170.469 246.217C169.904 246.217 169.438 246.345 169.069 246.602C168.705 246.854 168.432 247.206 168.25 247.659C168.073 248.107 167.984 248.625 167.984 249.213C167.984 250.123 168.194 250.853 168.614 251.404C169.034 251.95 169.652 252.223 170.469 252.223ZM178.488 253.189C178.036 253.189 177.639 253.119 177.298 252.979C176.962 252.839 176.675 252.65 176.437 252.412C176.204 252.174 176.015 251.903 175.87 251.6C175.726 251.292 175.621 250.968 175.555 250.627C175.49 250.282 175.457 249.939 175.457 249.598V245.44H176.493V249.297C176.493 249.712 176.533 250.097 176.612 250.452C176.692 250.807 176.818 251.117 176.99 251.383C177.168 251.644 177.394 251.847 177.669 251.992C177.949 252.137 178.288 252.209 178.684 252.209C179.048 252.209 179.368 252.146 179.643 252.02C179.923 251.894 180.157 251.714 180.343 251.481C180.535 251.243 180.679 250.956 180.777 250.62C180.875 250.279 180.924 249.897 180.924 249.472L181.652 249.633C181.652 250.408 181.517 251.059 181.246 251.586C180.976 252.113 180.602 252.512 180.126 252.783C179.65 253.054 179.104 253.189 178.488 253.189ZM181.029 253V251.138H180.924V245.44H181.953V253H181.029ZM186.843 253.21C186.138 253.21 185.536 253.035 185.037 252.685C184.537 252.33 184.155 251.852 183.889 251.25C183.623 250.648 183.49 249.969 183.49 249.213C183.49 248.462 183.62 247.785 183.882 247.183C184.148 246.581 184.528 246.105 185.023 245.755C185.517 245.405 186.11 245.23 186.801 245.23C187.51 245.23 188.107 245.403 188.593 245.748C189.078 246.093 189.444 246.567 189.692 247.169C189.944 247.766 190.07 248.448 190.07 249.213C190.07 249.964 189.946 250.643 189.699 251.25C189.451 251.852 189.087 252.33 188.607 252.685C188.126 253.035 187.538 253.21 186.843 253.21ZM186.948 252.251C187.484 252.251 187.928 252.12 188.278 251.859C188.628 251.598 188.889 251.238 189.062 250.781C189.234 250.319 189.321 249.796 189.321 249.213C189.321 248.62 189.234 248.098 189.062 247.645C188.889 247.188 188.628 246.831 188.278 246.574C187.932 246.317 187.496 246.189 186.969 246.189C186.427 246.189 185.979 246.322 185.625 246.588C185.27 246.854 185.006 247.216 184.834 247.673C184.666 248.13 184.582 248.644 184.582 249.213C184.582 249.787 184.668 250.305 184.841 250.767C185.018 251.224 185.282 251.586 185.632 251.852C185.982 252.118 186.42 252.251 186.948 252.251ZM189.321 253V247.309H189.209V242.92H190.245V253H189.321ZM197.832 253.203C196.946 253.203 196.215 253.012 195.641 252.629C195.072 252.246 194.722 251.714 194.591 251.033L195.641 250.858C195.753 251.287 196.008 251.63 196.404 251.887C196.806 252.139 197.3 252.265 197.888 252.265C198.462 252.265 198.915 252.146 199.246 251.908C199.578 251.665 199.743 251.336 199.743 250.921C199.743 250.688 199.69 250.499 199.582 250.354C199.48 250.205 199.267 250.067 198.945 249.941C198.623 249.815 198.143 249.666 197.503 249.493C196.817 249.306 196.281 249.12 195.893 248.933C195.506 248.746 195.231 248.532 195.067 248.289C194.904 248.042 194.822 247.741 194.822 247.386C194.822 246.957 194.944 246.581 195.186 246.259C195.429 245.932 195.765 245.68 196.194 245.503C196.624 245.321 197.123 245.23 197.692 245.23C198.262 245.23 198.77 245.323 199.218 245.51C199.671 245.692 200.035 245.949 200.31 246.28C200.586 246.611 200.749 246.996 200.8 247.435L199.75 247.624C199.68 247.181 199.459 246.831 199.085 246.574C198.717 246.313 198.248 246.177 197.678 246.168C197.142 246.154 196.705 246.257 196.369 246.476C196.033 246.691 195.865 246.978 195.865 247.337C195.865 247.538 195.926 247.71 196.047 247.855C196.169 247.995 196.388 248.128 196.705 248.254C197.027 248.38 197.485 248.518 198.077 248.667C198.773 248.844 199.319 249.031 199.715 249.227C200.112 249.423 200.394 249.654 200.562 249.92C200.73 250.186 200.814 250.515 200.814 250.907C200.814 251.621 200.548 252.183 200.016 252.594C199.489 253 198.761 253.203 197.832 253.203ZM206.483 253C206.058 253.089 205.638 253.124 205.223 253.105C204.812 253.086 204.443 252.998 204.117 252.839C203.795 252.68 203.55 252.433 203.382 252.097C203.246 251.817 203.172 251.535 203.158 251.25C203.148 250.961 203.144 250.632 203.144 250.263V243.34H204.166V250.221C204.166 250.538 204.168 250.804 204.173 251.019C204.182 251.229 204.231 251.416 204.32 251.579C204.488 251.892 204.754 252.078 205.118 252.139C205.486 252.2 205.941 252.186 206.483 252.097V253ZM201.527 246.322V245.44H206.483V246.322H201.527ZM210.856 253.21C210.104 253.21 209.463 253.04 208.931 252.699C208.399 252.358 207.99 251.887 207.706 251.285C207.421 250.683 207.279 249.992 207.279 249.213C207.279 248.42 207.423 247.724 207.713 247.127C208.002 246.53 208.413 246.065 208.945 245.734C209.481 245.398 210.118 245.23 210.856 245.23C211.612 245.23 212.256 245.4 212.788 245.741C213.324 246.077 213.733 246.546 214.013 247.148C214.297 247.745 214.44 248.434 214.44 249.213C214.44 250.006 214.297 250.704 214.013 251.306C213.728 251.903 213.317 252.37 212.781 252.706C212.244 253.042 211.602 253.21 210.856 253.21ZM210.856 252.223C211.696 252.223 212.321 251.945 212.732 251.39C213.142 250.83 213.348 250.104 213.348 249.213C213.348 248.298 213.14 247.57 212.725 247.029C212.314 246.488 211.691 246.217 210.856 246.217C210.291 246.217 209.824 246.345 209.456 246.602C209.092 246.854 208.819 247.206 208.637 247.659C208.459 248.107 208.371 248.625 208.371 249.213C208.371 250.123 208.581 250.853 209.001 251.404C209.421 251.95 210.039 252.223 210.856 252.223ZM215.984 253V245.44H216.908V247.26L216.726 247.022C216.81 246.798 216.92 246.593 217.055 246.406C217.19 246.215 217.337 246.058 217.496 245.937C217.692 245.764 217.921 245.634 218.182 245.545C218.443 245.452 218.707 245.398 218.973 245.384C219.239 245.365 219.482 245.384 219.701 245.44V246.406C219.426 246.336 219.125 246.32 218.798 246.357C218.471 246.394 218.17 246.525 217.895 246.749C217.643 246.945 217.454 247.181 217.328 247.456C217.202 247.727 217.118 248.016 217.076 248.324C217.034 248.627 217.013 248.928 217.013 249.227V253H215.984ZM222.905 253.21C222.335 253.21 221.857 253.107 221.47 252.902C221.087 252.697 220.8 252.424 220.609 252.083C220.417 251.742 220.322 251.371 220.322 250.97C220.322 250.559 220.403 250.209 220.567 249.92C220.735 249.626 220.961 249.386 221.246 249.199C221.535 249.012 221.869 248.87 222.247 248.772C222.629 248.679 223.052 248.597 223.514 248.527C223.98 248.452 224.435 248.389 224.879 248.338C225.327 248.282 225.719 248.228 226.055 248.177L225.691 248.401C225.705 247.654 225.56 247.101 225.257 246.742C224.953 246.383 224.426 246.203 223.675 246.203C223.157 246.203 222.718 246.32 222.359 246.553C222.004 246.786 221.754 247.155 221.61 247.659L220.609 247.365C220.781 246.688 221.129 246.163 221.652 245.79C222.174 245.417 222.853 245.23 223.689 245.23C224.379 245.23 224.965 245.361 225.446 245.622C225.931 245.879 226.274 246.252 226.475 246.742C226.568 246.961 226.629 247.206 226.657 247.477C226.685 247.748 226.699 248.023 226.699 248.303V253H225.782V251.103L226.048 251.215C225.791 251.864 225.392 252.358 224.851 252.699C224.309 253.04 223.661 253.21 222.905 253.21ZM223.024 252.321C223.504 252.321 223.924 252.235 224.284 252.062C224.643 251.889 224.932 251.654 225.152 251.355C225.371 251.052 225.513 250.711 225.579 250.333C225.635 250.09 225.665 249.824 225.67 249.535C225.674 249.241 225.677 249.022 225.677 248.877L226.069 249.08C225.719 249.127 225.338 249.173 224.928 249.22C224.522 249.267 224.12 249.32 223.724 249.381C223.332 249.442 222.977 249.514 222.66 249.598C222.445 249.659 222.237 249.745 222.037 249.857C221.836 249.964 221.67 250.109 221.54 250.291C221.414 250.473 221.351 250.699 221.351 250.97C221.351 251.189 221.404 251.402 221.512 251.607C221.624 251.812 221.801 251.983 222.044 252.118C222.291 252.253 222.618 252.321 223.024 252.321ZM231.524 256.57C231.137 256.57 230.754 256.512 230.376 256.395C230.003 256.283 229.657 256.103 229.34 255.856C229.023 255.613 228.757 255.296 228.542 254.904L229.473 254.386C229.683 254.806 229.977 255.107 230.355 255.289C230.738 255.476 231.127 255.569 231.524 255.569C232.07 255.569 232.511 255.466 232.847 255.261C233.188 255.06 233.435 254.762 233.589 254.365C233.743 253.968 233.818 253.474 233.813 252.881V250.865H233.932V245.44H234.849V252.895C234.849 253.11 234.842 253.315 234.828 253.511C234.819 253.712 234.798 253.908 234.765 254.099C234.676 254.664 234.492 255.128 234.212 255.492C233.937 255.856 233.573 256.127 233.12 256.304C232.672 256.481 232.14 256.57 231.524 256.57ZM231.454 253.21C230.749 253.21 230.147 253.035 229.648 252.685C229.149 252.33 228.766 251.852 228.5 251.25C228.234 250.648 228.101 249.969 228.101 249.213C228.101 248.462 228.232 247.785 228.493 247.183C228.759 246.581 229.139 246.105 229.634 245.755C230.129 245.405 230.721 245.23 231.412 245.23C232.121 245.23 232.719 245.403 233.204 245.748C233.689 246.093 234.056 246.567 234.303 247.169C234.555 247.766 234.681 248.448 234.681 249.213C234.681 249.964 234.557 250.643 234.31 251.25C234.063 251.852 233.699 252.33 233.218 252.685C232.737 253.035 232.149 253.21 231.454 253.21ZM231.559 252.251C232.096 252.251 232.539 252.12 232.889 251.859C233.239 251.598 233.5 251.238 233.673 250.781C233.846 250.319 233.932 249.796 233.932 249.213C233.932 248.62 233.846 248.098 233.673 247.645C233.5 247.188 233.239 246.831 232.889 246.574C232.544 246.317 232.107 246.189 231.58 246.189C231.039 246.189 230.591 246.322 230.236 246.588C229.881 246.854 229.618 247.216 229.445 247.673C229.277 248.13 229.193 248.644 229.193 249.213C229.193 249.787 229.279 250.305 229.452 250.767C229.629 251.224 229.893 251.586 230.243 251.852C230.593 252.118 231.032 252.251 231.559 252.251ZM240.005 253.21C239.268 253.21 238.629 253.047 238.087 252.72C237.551 252.393 237.133 251.934 236.834 251.341C236.536 250.748 236.386 250.053 236.386 249.255C236.386 248.429 236.533 247.715 236.827 247.113C237.121 246.511 237.534 246.047 238.066 245.72C238.603 245.393 239.235 245.23 239.963 245.23C240.71 245.23 241.347 245.403 241.874 245.748C242.402 246.089 242.801 246.579 243.071 247.218C243.342 247.857 243.466 248.62 243.442 249.507H242.392V249.143C242.374 248.163 242.161 247.423 241.755 246.924C241.354 246.425 240.766 246.175 239.991 246.175C239.179 246.175 238.556 246.439 238.122 246.966C237.693 247.493 237.478 248.245 237.478 249.22C237.478 250.172 237.693 250.912 238.122 251.439C238.556 251.962 239.17 252.223 239.963 252.223C240.505 252.223 240.976 252.099 241.377 251.852C241.783 251.6 242.103 251.238 242.336 250.767L243.295 251.138C242.997 251.796 242.556 252.307 241.972 252.671C241.394 253.03 240.738 253.21 240.005 253.21ZM237.114 249.507V248.646H242.889V249.507H237.114ZM251.914 253C251.49 253.089 251.07 253.124 250.654 253.105C250.244 253.086 249.875 252.998 249.548 252.839C249.226 252.68 248.981 252.433 248.813 252.097C248.678 251.817 248.603 251.535 248.589 251.25C248.58 250.961 248.575 250.632 248.575 250.263V243.34H249.597V250.221C249.597 250.538 249.6 250.804 249.604 251.019C249.614 251.229 249.663 251.416 249.751 251.579C249.919 251.892 250.185 252.078 250.549 252.139C250.918 252.2 251.373 252.186 251.914 252.097V253ZM246.958 246.322V245.44H251.914V246.322H246.958ZM256.287 253.21C255.536 253.21 254.894 253.04 254.362 252.699C253.83 252.358 253.422 251.887 253.137 251.285C252.853 250.683 252.71 249.992 252.71 249.213C252.71 248.42 252.855 247.724 253.144 247.127C253.434 246.53 253.844 246.065 254.376 245.734C254.913 245.398 255.55 245.23 256.287 245.23C257.043 245.23 257.687 245.4 258.219 245.741C258.756 246.077 259.164 246.546 259.444 247.148C259.729 247.745 259.871 248.434 259.871 249.213C259.871 250.006 259.729 250.704 259.444 251.306C259.16 251.903 258.749 252.37 258.212 252.706C257.676 253.042 257.034 253.21 256.287 253.21ZM256.287 252.223C257.127 252.223 257.753 251.945 258.163 251.39C258.574 250.83 258.779 250.104 258.779 249.213C258.779 248.298 258.572 247.57 258.156 247.029C257.746 246.488 257.123 246.217 256.287 246.217C255.723 246.217 255.256 246.345 254.887 246.602C254.523 246.854 254.25 247.206 254.068 247.659C253.891 248.107 253.802 248.625 253.802 249.213C253.802 250.123 254.012 250.853 254.432 251.404C254.852 251.95 255.471 252.223 256.287 252.223ZM267.354 253.21C266.594 253.21 265.95 253.04 265.422 252.699C264.895 252.358 264.494 251.889 264.218 251.292C263.948 250.69 263.808 249.999 263.798 249.22C263.808 248.427 263.952 247.731 264.232 247.134C264.512 246.532 264.916 246.065 265.443 245.734C265.971 245.398 266.61 245.23 267.361 245.23C268.127 245.23 268.792 245.417 269.356 245.79C269.926 246.163 270.315 246.674 270.525 247.323L269.517 247.645C269.34 247.192 269.058 246.842 268.67 246.595C268.288 246.343 267.849 246.217 267.354 246.217C266.799 246.217 266.339 246.345 265.975 246.602C265.611 246.854 265.341 247.206 265.163 247.659C264.986 248.112 264.895 248.632 264.89 249.22C264.9 250.125 265.11 250.853 265.52 251.404C265.931 251.95 266.542 252.223 267.354 252.223C267.868 252.223 268.304 252.106 268.663 251.873C269.027 251.635 269.303 251.29 269.489 250.837L270.525 251.145C270.245 251.817 269.835 252.33 269.293 252.685C268.752 253.035 268.106 253.21 267.354 253.21ZM274.922 253.21C274.171 253.21 273.529 253.04 272.997 252.699C272.465 252.358 272.057 251.887 271.772 251.285C271.487 250.683 271.345 249.992 271.345 249.213C271.345 248.42 271.49 247.724 271.779 247.127C272.068 246.53 272.479 246.065 273.011 245.734C273.548 245.398 274.185 245.23 274.922 245.23C275.678 245.23 276.322 245.4 276.854 245.741C277.391 246.077 277.799 246.546 278.079 247.148C278.364 247.745 278.506 248.434 278.506 249.213C278.506 250.006 278.364 250.704 278.079 251.306C277.794 251.903 277.384 252.37 276.847 252.706C276.31 253.042 275.669 253.21 274.922 253.21ZM274.922 252.223C275.762 252.223 276.387 251.945 276.798 251.39C277.209 250.83 277.414 250.104 277.414 249.213C277.414 248.298 277.206 247.57 276.791 247.029C276.38 246.488 275.757 246.217 274.922 246.217C274.357 246.217 273.891 246.345 273.522 246.602C273.158 246.854 272.885 247.206 272.703 247.659C272.526 248.107 272.437 248.625 272.437 249.213C272.437 250.123 272.647 250.853 273.067 251.404C273.487 251.95 274.105 252.223 274.922 252.223ZM285.51 253V249.143C285.51 248.723 285.471 248.338 285.391 247.988C285.312 247.633 285.184 247.325 285.006 247.064C284.834 246.798 284.607 246.593 284.327 246.448C284.052 246.303 283.716 246.231 283.319 246.231C282.955 246.231 282.633 246.294 282.353 246.42C282.078 246.546 281.845 246.728 281.653 246.966C281.467 247.199 281.324 247.484 281.226 247.82C281.128 248.156 281.079 248.539 281.079 248.968L280.351 248.807C280.351 248.032 280.487 247.381 280.757 246.854C281.028 246.327 281.401 245.928 281.877 245.657C282.353 245.386 282.899 245.251 283.515 245.251C283.968 245.251 284.362 245.321 284.698 245.461C285.039 245.601 285.326 245.79 285.559 246.028C285.797 246.266 285.989 246.539 286.133 246.847C286.278 247.15 286.383 247.475 286.448 247.82C286.514 248.161 286.546 248.501 286.546 248.842V253H285.51ZM280.043 253V245.44H280.974V247.302H281.079V253H280.043ZM292.479 253C292.054 253.089 291.634 253.124 291.219 253.105C290.808 253.086 290.439 252.998 290.113 252.839C289.791 252.68 289.546 252.433 289.378 252.097C289.242 251.817 289.168 251.535 289.154 251.25C289.144 250.961 289.14 250.632 289.14 250.263V243.34H290.162V250.221C290.162 250.538 290.164 250.804 290.169 251.019C290.178 251.229 290.227 251.416 290.316 251.579C290.484 251.892 290.75 252.078 291.114 252.139C291.482 252.2 291.937 252.186 292.479 252.097V253ZM287.523 246.322V245.44H292.479V246.322H287.523ZM294.108 244.005V242.85H295.137V244.005H294.108ZM294.108 253V245.44H295.137V253H294.108ZM300.169 253.21C299.464 253.21 298.862 253.035 298.363 252.685C297.864 252.33 297.481 251.852 297.215 251.25C296.949 250.648 296.816 249.969 296.816 249.213C296.816 248.462 296.947 247.785 297.208 247.183C297.474 246.581 297.854 246.105 298.349 245.755C298.844 245.405 299.436 245.23 300.127 245.23C300.836 245.23 301.434 245.403 301.919 245.748C302.404 246.093 302.771 246.567 303.018 247.169C303.27 247.766 303.396 248.448 303.396 249.213C303.396 249.964 303.272 250.643 303.025 251.25C302.778 251.852 302.414 252.33 301.933 252.685C301.452 253.035 300.864 253.21 300.169 253.21ZM300.274 252.251C300.811 252.251 301.254 252.12 301.604 251.859C301.954 251.598 302.215 251.238 302.388 250.781C302.561 250.319 302.647 249.796 302.647 249.213C302.647 248.62 302.561 248.098 302.388 247.645C302.215 247.188 301.954 246.831 301.604 246.574C301.259 246.317 300.822 246.189 300.295 246.189C299.754 246.189 299.306 246.322 298.951 246.588C298.596 246.854 298.333 247.216 298.16 247.673C297.992 248.13 297.908 248.644 297.908 249.213C297.908 249.787 297.994 250.305 298.167 250.767C298.344 251.224 298.608 251.586 298.958 251.852C299.308 252.118 299.747 252.251 300.274 252.251ZM302.535 256.36V251.131H302.647V245.44H303.571V256.36H302.535Z" fill="#707477"/>
<defs>
<clipPath id="clip0_631_10774">
<rect width="321.229" height="200.768" fill="white"/>
</clipPath>
<clipPath id="clip1_631_10774">
<rect width="270.884" height="167.123" fill="white" transform="translate(26.5011 33.729)"/>
</clipPath>
</defs>
</svg>
