<svg width="20" height="20" viewBox="0 0 20 20" fill="none" xmlns="http://www.w3.org/2000/svg">
<rect width="20" height="20" rx="10" fill="white"/>
<path d="M8.33333 11.6247L13.3958 6.56217C13.5069 6.45106 13.6528 6.39551 13.8333 6.39551C14.0139 6.39551 14.1597 6.45106 14.2708 6.56217C14.3819 6.67329 14.4375 6.81912 14.4375 6.99967C14.4375 7.18023 14.3819 7.32606 14.2708 7.43717L8.85417 12.833C8.70139 12.9858 8.52778 13.0622 8.33333 13.0622C8.13889 13.0622 7.96528 12.9858 7.8125 12.833L5.72917 10.7705C5.61806 10.6594 5.5625 10.5136 5.5625 10.333C5.5625 10.1525 5.61806 10.0066 5.72917 9.89551C5.84028 9.7844 5.98611 9.72884 6.16667 9.72884C6.34722 9.72884 6.49306 9.7844 6.60417 9.89551L8.33333 11.6247Z" fill="#1A1B25"/>
</svg>
