<svg width="50" height="50" viewBox="0 0 50 50" fill="none" xmlns="http://www.w3.org/2000/svg">
<g clip-path="url(#clip0_18957_1578)">
<rect x="0.5" y="0.5" width="49" height="49" rx="6.5" fill="#343536" stroke="#BFC4C8"/>
<path d="M30.0003 20.0707H25.5146L25.286 19.3665C25.1378 18.9533 24.863 18.5957 24.4995 18.3433C24.136 18.091 23.702 17.9563 23.2574 17.958H20.0003C19.432 17.958 18.8869 18.1806 18.4851 18.5768C18.0832 18.973 17.8574 19.5104 17.8574 20.0707V29.2256C17.8574 29.7859 18.0832 30.3233 18.4851 30.7195C18.8869 31.1157 19.432 31.3383 20.0003 31.3383H30.0003C30.5686 31.3383 31.1136 31.1157 31.5155 30.7195C31.9174 30.3233 32.1431 29.7859 32.1431 29.2256V22.1834C32.1431 21.6231 31.9174 21.0857 31.5155 20.6895C31.1136 20.2933 30.5686 20.0707 30.0003 20.0707ZM30.7146 29.2256C30.7146 29.4124 30.6393 29.5915 30.5054 29.7236C30.3714 29.8557 30.1897 29.9299 30.0003 29.9299H20.0003C19.8108 29.9299 19.6292 29.8557 19.4952 29.7236C19.3612 29.5915 19.286 29.4124 19.286 29.2256V20.0707C19.286 19.8839 19.3612 19.7048 19.4952 19.5727C19.6292 19.4407 19.8108 19.3665 20.0003 19.3665H23.2574C23.4072 19.3661 23.5532 19.4121 23.675 19.4981C23.7968 19.584 23.8881 19.7055 23.936 19.8453L24.3217 21.0003C24.3696 21.1402 24.4609 21.2616 24.5827 21.3476C24.7045 21.4335 24.8505 21.4795 25.0003 21.4792H30.0003C30.1897 21.4792 30.3714 21.5533 30.5054 21.6854C30.6393 21.8175 30.7146 21.9966 30.7146 22.1834V29.2256Z" fill="white"/>
</g>
<defs>
<clipPath id="clip0_18957_1578">
<rect width="50" height="50" fill="white"/>
</clipPath>
</defs>
</svg>
