<svg width="21" height="21" viewBox="0 0 21 21" fill="none" xmlns="http://www.w3.org/2000/svg">
<path d="M18.5803 10.6604C18.421 10.4779 18.3332 10.2433 18.3332 10.0004C18.3332 9.75747 18.421 9.52287 18.5803 9.34038L19.8519 7.90038C19.9921 7.74305 20.0791 7.54509 20.1005 7.33489C20.1219 7.12469 20.0766 6.91307 19.9712 6.73038L17.9842 3.27038C17.8798 3.0879 17.7208 2.94326 17.53 2.85707C17.3391 2.77088 17.126 2.74754 16.9212 2.79038L15.0535 3.17038C14.8159 3.21981 14.5684 3.17997 14.358 3.05838C14.1475 2.93679 13.9885 2.74187 13.911 2.51038L13.305 0.680383C13.2384 0.481762 13.1114 0.309248 12.942 0.187225C12.7727 0.0652023 12.5695 -0.000157766 12.3612 0.000383396H8.38736C8.17072 -0.0109986 7.95633 0.0493098 7.77694 0.172097C7.59755 0.294885 7.46302 0.473403 7.3939 0.680383L6.83756 2.51038C6.76007 2.74187 6.60109 2.93679 6.39061 3.05838C6.18014 3.17997 5.93273 3.21981 5.69508 3.17038L3.77769 2.79038C3.58352 2.76276 3.38557 2.79361 3.20878 2.87902C3.03199 2.96444 2.88427 3.10061 2.78423 3.27038L0.797298 6.73038C0.68917 6.91103 0.640552 7.12147 0.658395 7.33161C0.676238 7.54174 0.759629 7.74082 0.896645 7.90038L2.15834 9.34038C2.31762 9.52287 2.40545 9.75747 2.40545 10.0004C2.40545 10.2433 2.31762 10.4779 2.15834 10.6604L0.896645 12.1004C0.759629 12.2599 0.676238 12.459 0.658395 12.6692C0.640552 12.8793 0.68917 13.0897 0.797298 13.2704L2.78423 16.7304C2.88864 16.9129 3.04761 17.0575 3.23849 17.1437C3.42937 17.2299 3.6424 17.2532 3.84723 17.2104L5.71495 16.8304C5.9526 16.781 6.20001 16.8208 6.41048 16.9424C6.62096 17.064 6.77994 17.2589 6.85743 17.4904L7.46344 19.3204C7.53257 19.5274 7.6671 19.7059 7.84649 19.8287C8.02588 19.9515 8.24027 20.0118 8.45691 20.0004H12.4308C12.639 20.0009 12.8422 19.9356 13.0116 19.8135C13.1809 19.6915 13.3079 19.519 13.3746 19.3204L13.9806 17.4904C14.0581 17.2589 14.217 17.064 14.4275 16.9424C14.638 16.8208 14.8854 16.781 15.123 16.8304L16.9908 17.2104C17.1956 17.2532 17.4086 17.2299 17.5995 17.1437C17.7904 17.0575 17.9494 16.9129 18.0538 16.7304L20.0407 13.2704C20.1462 13.0877 20.1915 12.8761 20.17 12.6659C20.1486 12.4557 20.0616 12.2577 19.9215 12.1004L18.5803 10.6604ZM17.1 12.0004L17.8948 12.9004L16.6232 15.1204L15.4509 14.8804C14.7354 14.7332 13.9911 14.8555 13.3592 15.2242C12.7274 15.5929 12.2521 16.1822 12.0234 16.8804L11.6459 18.0004H9.10266L8.74501 16.8604C8.51637 16.1622 8.04102 15.5729 7.4092 15.2042C6.77738 14.8355 6.03307 14.7132 5.31756 14.8604L4.14527 15.1004L2.85377 12.8904L3.64854 11.9904C4.13728 11.4404 4.40748 10.7283 4.40748 9.99038C4.40748 9.25245 4.13728 8.54041 3.64854 7.99038L2.85377 7.09038L4.1254 4.89038L5.29769 5.13038C6.0132 5.27761 6.75751 5.15526 7.38933 4.78658C8.02115 4.4179 8.4965 3.82854 8.72514 3.13038L9.10266 2.00038H11.6459L12.0234 3.14038C12.2521 3.83854 12.7274 4.4279 13.3592 4.79658C13.9911 5.16526 14.7354 5.28761 15.4509 5.14038L16.6232 4.90038L17.8948 7.12038L17.1 8.02038C16.6168 8.56914 16.3499 9.27707 16.3499 10.0104C16.3499 10.7437 16.6168 11.4516 17.1 12.0004ZM10.3743 6.00038C9.58834 6.00038 8.82003 6.23498 8.16654 6.67451C7.51304 7.11403 7.0037 7.73874 6.70293 8.46965C6.40216 9.20055 6.32346 10.0048 6.47679 10.7807C6.63012 11.5567 7.0086 12.2694 7.56435 12.8288C8.1201 13.3882 8.82818 13.7692 9.59903 13.9235C10.3699 14.0779 11.1689 13.9987 11.895 13.6959C12.6211 13.3932 13.2418 12.8805 13.6784 12.2227C14.1151 11.5649 14.3481 10.7915 14.3481 10.0004C14.3481 8.93952 13.9295 7.9221 13.1842 7.17196C12.439 6.42181 11.4282 6.00038 10.3743 6.00038ZM10.3743 12.0004C9.98131 12.0004 9.59716 11.8831 9.27041 11.6633C8.94366 11.4436 8.689 11.1312 8.53861 10.7657C8.38822 10.4003 8.34888 9.99817 8.42554 9.6102C8.50221 9.22224 8.69144 8.86588 8.96932 8.58617C9.2472 8.30647 9.60124 8.11598 9.98666 8.03881C10.3721 7.96164 10.7716 8.00125 11.1347 8.15262C11.4977 8.304 11.808 8.56034 12.0264 8.88924C12.2447 9.21814 12.3612 9.60482 12.3612 10.0004C12.3612 10.5308 12.1519 11.0395 11.7793 11.4146C11.4066 11.7897 10.9013 12.0004 10.3743 12.0004Z" fill="#959596"/>
</svg>
