<svg width="24" height="24" viewBox="0 0 24 24" fill="none" xmlns="http://www.w3.org/2000/svg">
<g id="icons/swap">
<path id="Vector" d="M13.9912 18.1836L14.0125 18.205V18.1748V11.9998C14.0125 11.7196 14.1072 11.4854 14.2964 11.2961C14.4856 11.1069 14.7199 11.0123 15 11.0123C15.2802 11.0123 15.5145 11.1069 15.7037 11.2961C15.8929 11.4854 15.9875 11.7196 15.9875 11.9998V18.1748V18.205L16.0089 18.1836L17.8839 16.3086C18.0648 16.1277 18.2909 16.033 18.5629 16.0248C18.8344 16.0166 19.0686 16.111 19.2662 16.3086L19.2666 16.309C19.4641 16.49 19.5668 16.716 19.5751 16.9877C19.5833 17.2591 19.4888 17.4933 19.2912 17.691L15.6912 21.291C15.5923 21.3898 15.4855 21.4596 15.3708 21.5005C15.2556 21.5417 15.1321 21.5623 15 21.5623C14.868 21.5623 14.7445 21.5417 14.6293 21.5005C14.5146 21.4596 14.4078 21.3898 14.3089 21.291L10.7089 17.691C10.5281 17.5101 10.4375 17.2842 10.4375 17.0123C10.4375 16.7408 10.5361 16.5065 10.7337 16.3088C10.9315 16.1276 11.1619 16.033 11.4254 16.0248C11.6884 16.0166 11.9185 16.1109 12.1162 16.3086L13.9912 18.1836ZM8.01255 5.8248V5.79463L7.99121 5.81597L6.11621 7.69097C5.90167 7.90551 5.66337 8.00374 5.40083 7.98733C5.1371 7.97085 4.915 7.87207 4.73389 7.69097C4.53616 7.49324 4.43755 7.25889 4.43755 6.9873C4.43755 6.7154 4.52805 6.48948 4.70889 6.30864L8.30889 2.70864C8.40776 2.60977 8.51456 2.54004 8.62925 2.49908C8.74447 2.45793 8.86804 2.4373 9.00005 2.4373C9.13206 2.4373 9.25563 2.45793 9.37084 2.49908C9.48554 2.54004 9.59233 2.60977 9.69121 2.70864L13.2912 6.30864C13.472 6.4894 13.5625 6.71945 13.5625 6.9998C13.5625 7.28016 13.472 7.51021 13.2912 7.69097C13.0935 7.8887 12.8591 7.98731 12.5875 7.98731C12.316 7.98731 12.0816 7.8887 11.8839 7.69097L10.0089 5.81597L9.98755 5.79463V5.8248V11.9998C9.98755 12.28 9.89292 12.5143 9.70371 12.7035C9.5145 12.8927 9.28023 12.9873 9.00005 12.9873C8.71986 12.9873 8.48559 12.8927 8.29639 12.7035C8.10718 12.5143 8.01255 12.28 8.01255 11.9998V5.8248Z" fill="#343536" stroke="#343536" stroke-width="0.025"/>
</g>
</svg>
